<svg xmlns="http://www.w3.org/2000/svg" viewBox="0 0 332.34 216.06"><defs><style>.cls-1{fill:#f9bd00;}.cls-2,.cls-6{fill:#f97c00;}.cls-3{fill:#ffd215;}.cls-4{fill:#f74c00;}.cls-5{fill:#ffdb43;}.cls-6{opacity:0.42;isolation:isolate;}</style></defs><g id="Шар_2" data-name="Шар 2"><g id="Шар_1-2" data-name="Шар 1"><g id="OBJECT"><path class="cls-1" d="M161.82,93.85S101.87,7.58,74.36.41,11.38,83.08,25.86,98c12,12.36,79.48,16.35,127.92,12.74Z"/><path class="cls-2" d="M155.7,91.23S73.55,27,41.68,26.6A163.75,163.75,0,0,0,27,60.52,77.14,77.14,0,0,0,33.26,73l47.1,13.17,54,10.94Z"/><path class="cls-3" d="M147.87,80.22S88.61-4.49,71.2,5.89A93.85,93.85,0,0,0,55,17.69a4.21,4.21,0,0,0,1.78,7.14C71.84,28.88,110.47,42.29,147.87,80.22Z"/><path class="cls-1" d="M167.81,93.85S227.76,7.58,255.27.41s63,82.67,48.5,97.61c-12,12.36-79.48,16.35-127.92,12.74Z"/><path class="cls-2" d="M173.93,91.23S256.08,27,288,26.6a163.75,163.75,0,0,1,14.66,33.92A77.14,77.14,0,0,1,296.37,73l-47.1,13.17-54,10.94Z"/><path class="cls-3" d="M181.76,80.22S241-4.49,258.43,5.89a93.85,93.85,0,0,1,16.25,11.8,4.21,4.21,0,0,1-1.78,7.14C257.79,28.88,219.16,42.29,181.76,80.22Z"/><path class="cls-1" d="M171.22,119.92s34.68,68,45.19,94c5.07,12.56,46.24-33.41,30-52.1S182.25,108,182.25,108Z"/><path class="cls-2" d="M182.26,108s14.11,10.36,29.61,22.82v0l-36.61-3c-2.5-5-4-7.94-4-7.94Z"/><path class="cls-3" d="M183.31,133.51s32.58,75.5,42.74,71.35c15.35-6.27,19.27-30.58,13.66-39.64s-35-30.58-35-30.58Z"/><path class="cls-1" d="M161.13,119.92s-34.68,68-45.19,94c-5.07,12.56-46.24-33.41-29.95-52.1S150.1,108,150.1,108Z"/><path class="cls-2" d="M150.1,108S136,118.39,120.49,130.85v0l36.61-3c2.5-5,4-7.94,4-7.94Z"/><path class="cls-3" d="M149.05,133.51s-32.58,75.5-42.74,71.35C91,198.59,87,174.28,92.65,165.22s35-30.58,35-30.58Z"/><path class="cls-1" d="M176.65,91.23s103-58.89,134.52-52.85,24.11,114.86,2.1,123.07c-18.22,6.8-89-21.9-136.62-49.08V91.23Z"/><path class="cls-2" d="M190.2,117s130.49,12,128.86,26.3c-1.05,9.25-5.91,15.83-19.27,14.91C277.9,156.73,190.2,117,190.2,117Z"/><path class="cls-4" d="M304.05,145c-4.56-8.55-68.38-20.61-112.13-27.16L190.2,117s130.49,12,128.86,26.3c-1.05,9.25-5.91,15.83-19.27,14.91-.49,0-1-.09-1.57-.16C302,156.79,306.74,150,304.05,145Z"/><path class="cls-2" d="M189.32,105a64.8,64.8,0,0,1-1.24,13.67c-3.92-2.1-7.74-4.21-11.43-6.31V91.23s3.74-2.14,10-5.56C188.36,90.52,189.32,96.84,189.32,105Z"/><path class="cls-3" d="M194.87,87.45S303.12,25.54,315.73,48.94s7.71,76.63,4.2,79.28c-1.71,1.29-31.35-8.19-61.66-12.46-31.71-4.47-64.11-3.78-64.11-3.78S197,91.23,194.87,87.45Z"/><path class="cls-5" d="M199.42,89.34S313.62,24.41,315,61.78,210.28,94.25,199.42,89.34Z"/><path class="cls-1" d="M155.7,91.23S52.71,32.34,21.18,38.38s-24.11,114.86-2.1,123.07c18.22,6.8,89-21.9,136.62-49.08Z"/><path class="cls-2" d="M142.16,117S11.67,129,13.3,143.33c1,9.25,5.91,15.83,19.27,14.91C54.46,156.73,142.16,117,142.16,117Z"/><path class="cls-4" d="M28.3,145c4.56-8.55,68.38-20.61,112.13-27.16l1.72-.77S11.66,129,13.29,143.33c1.05,9.25,5.91,15.83,19.27,14.91.49,0,1-.09,1.57-.16C30.41,156.79,25.62,150,28.3,145Z"/><path class="cls-2" d="M143,105a64.8,64.8,0,0,0,1.24,13.67c3.92-2.1,7.74-4.21,11.43-6.31V91.23s-3.74-2.14-10-5.56C144,90.52,143,96.84,143,105Z"/><path class="cls-1" d="M183.38,104.44c0-19.55-7.59-24.47-16.95-24.47s-17,4.93-17,24.47,7.59,21.46,17,21.46S183.38,124,183.38,104.44Z"/><path class="cls-3" d="M178.41,98.31c0-11.08-5.36-13.88-12-13.88s-12,2.79-12,13.88,5.36,12.17,12,12.17S178.41,109.4,178.41,98.31Z"/><path class="cls-6" d="M166.43,116.46c-8.55,0-15.62-1.6-16.78-16.78-.11,1.48-.17,3.06-.17,4.75,0,19.55,7.59,21.46,17,21.46s16.95-1.91,16.95-21.46c0-1.69-.06-3.27-.17-4.75C182.05,114.86,175,116.46,166.43,116.46Z"/><path class="cls-3" d="M137.49,87.45S29.24,25.54,16.63,48.94s-7.71,76.63-4.2,79.28c1.71,1.29,31.35-8.19,61.66-12.46C105.8,111.29,138.2,112,138.2,112S135.39,91.23,137.49,87.45Z"/><path class="cls-5" d="M132.93,89.34S18.73,24.41,17.32,61.78,122.07,94.25,132.93,89.34Z"/></g></g></g></svg>